<svg xmlns="http://www.w3.org/2000/svg" width="16" height="16" viewBox="0 0 4.233 4.233">
    <g stroke-linecap="round" stroke-linejoin="round">
        <path fill="#0f0" d="M3.176.53A.53.53 0 0 0 2.8.683L1.588 1.896v.75h.746l1.215-1.214a.53.53 0 0 0 0-.748.53.53 0 0 0-.373-.155M.53 3.201l.001.022zm.007.059.009.042zm.016.068.01.034zm.08.16.027.034zm.04.047.01.013.025.022zm.051.049.035.025z"/>
        <path fill="#00f" d="M1.059.53a.53.53 0 0 0-.53.529v2.116l.005-.068v-.001l.013-.067a.5.5 0 0 1 .092-.186l.045-.051a.53.53 0 0 1 .374-.156h.53V1.06a.53.53 0 0 0-.53-.53M.533 3.237l.003.02zm.013.065.007.026zm.018.06.014.033zm.028.06.023.04zm.036.06.032.04zm.043.052.047.045zm.05.048.047.034zm.064.045.04.022zm.065.034.037.013zm.07.024.035.008z"/>
        <path fill="red" d="M1.081 2.647a.53.53 0 0 1 .506.528.53.53 0 0 1-.529.529.53.53 0 0 1-.39-.173.53.53 0 0 0 .39.174h2.118a.53.53 0 0 0 .529-.53.53.53 0 0 0-.53-.528z"/>
        <path fill="#facc15" d="M1.058 2.646a.53.53 0 0 0-.529.529.53.53 0 0 0 .53.529.53.53 0 0 0 .528-.53.53.53 0 0 0-.529-.528" style="paint-order:stroke fill markers"/>
    </g>
</svg>
